<?xml version="1.0" encoding="utf-8"?>
<!-- Generator: Adobe Illustrator 22.1.0, SVG Export Plug-In . SVG Version: 6.00 Build 0)  -->
<svg version="1.1" id="Layer_2" xmlns="http://www.w3.org/2000/svg" xmlns:xlink="http://www.w3.org/1999/xlink" x="0px" y="0px"
	 viewBox="0 0 841.9 595.3" style="enable-background:new 0 0 841.9 595.3;" xml:space="preserve">
<style type="text/css">
	.st0{fill:#68BFEA;}
	.st1{fill:#FFFFFF;}
	.st2{opacity:0.2;}
	.st3{fill:#F2B686;}
	.st4{fill:#303030;}
	.st5{opacity:0.4;}
	.st6{fill:#565656;}
</style>
<path class="st0" d="M0,0"/>
<g>
	<path class="st1" d="M413.5,124.2"/>
</g>
<g>
	<ellipse class="st2" cx="202" cy="283.3" rx="71.7" ry="11.7"/>
	<path d="M308.9,168.5c-0.1-0.3-0.3-0.5-0.5-0.6c0,0-0.4-0.1-1-0.3c-0.3-1.7-2.1-6.7-13-7.6l-16.6-1.4c-0.1-0.1-0.3-0.2-0.4-0.2
		l-17.7-3.5c-2.2-3.9-6.7-3.6-8.9-2.9c-0.3,0.1-0.7,0.2-1.1,0.3c-0.1-0.1-0.1-0.1-0.2-0.1c-4.6-1.7-16.2-6.3-17.8-6.9
		c0.2-0.7,0.3-1.1,0.3-1.4l21.8-17.7c0.2-0.1,0.3-0.3,0.3-0.5c0.1-0.1,0.2-0.1,0.2-0.2c1-0.8,1.6-2,1.7-3.4c0.1-1.3-0.4-2.7-1.2-3.8
		c-1.1-1.3-2.7-2.2-4.3-2.2c-1.1,0-2,0.3-2.8,1c0,0,0,0-0.1,0.1L221.9,138c-0.8-0.3-1.4-0.6-2-0.7c2.2-2,4-4.5,5.5-7.4
		c2.9-6.1,3.6-13.5,1.8-20.7c-3.1-12.8-13.4-22.2-24.4-22.2c-1.5,0-3.1,0.2-4.6,0.6c-12.3,3-19.4,17.6-15.7,32.5
		c0.8,3.3,2.1,6.4,3.8,9.2l-4,6.3c-0.1-0.1-0.3-0.2-0.3-0.3c-0.2-0.2-0.4-0.3-0.7-0.2c-0.5,0-13.6,0.5-22.4,11
		c-0.2,0.2-0.2,0.4-0.2,0.7c-0.9,1.3-0.7,3.5-0.4,5.3c-2.8,3.8-7,9.4-10.2,12.7c-1,0.8-12.4,11-2.4,25.7c0.3,0.4,2.5,4.1,5.1,5.1
		c0,0,0,0,0.1,0.1L134,209.3c-0.1,0.1-0.2,0.2-0.3,0.4c0,0,0,0,0,0c-1,0.8-1.6,2-1.7,3.4c-0.1,1.3,0.4,2.7,1.2,3.8
		c1.1,1.3,2.7,2.2,4.3,2.2c0.7,0,1.4-0.2,2-0.5c0.2,0,0.4-0.1,0.6-0.2l18.9-15.3c1,0.7,2,1.4,3,1.8l1.7,1.5
		c0.1,1.9,0.8,7.5,5.3,11.2c0,4.8,0.5,13.6,0.5,13.6c0,4.1,0,10.4,0.1,14.5c-1.2,0.2-3.6,0.7-5.4,2.7c-1.4,1.6-2.1,3.6-2.2,6.2
		l-6.6,1.2l-6.5-2.4c-0.1,0-0.2-0.1-0.3-0.1c-1.5,0-2.8,0.6-3.9,1.8c-4.3,5.1-1.7,20.2-1.6,20.8c1.3,9.8,14,10.8,19.2,10.8
		c1.2,0,2-0.1,2.2-0.1c0.4,0,0.8-0.3,0.9-0.7l1.2-3.8c0-0.1,0-0.1,0-0.2c0.6-5.5-3.8-8.5-6.9-9.6l0.2-1.7c2.3,0.1,4.1-0.1,6.1-0.4
		c0.6-0.1,1.3-0.2,2-0.2c2.8,2.3,6.5,3.4,11,3.4c1.3,0,2.8-0.1,4.3-0.3c12.7-1.8,12.7-15.9,12.6-17.2c1.7-13.6,6.3-21.3,7.5-23.2
		c14.8,1.6,25.2,7.8,27.6,9.4c-0.5,2.6,0,4.8,0.9,6.5l-6,14.9c-1.3,0.4-4.4,1.8-6.1,7.3c-0.3,0.7-1.2,3.8,4.5,7.7
		c0.2,0.2,6.1,3.9,13.3,5.9c0.3,0.1,7.1,1.9,13.2,1.9c0.7,0,1.4,0,2.1-0.1c0.6,0,5.6-0.2,7.3-2.7c0.1-0.1,0.1-0.3,0.2-0.4
		c0-0.1,1.2-8.6-9.2-10.9c-2.4-0.8-6.5-2.3-8.1-3.4c0.8-2.3,3.4-10.5,5.1-13c6.8,0,8.9-3.7,9.1-4.2c9.8-17.1-6.4-28.4-6.6-28.5
		c0,0-0.1,0-0.1-0.1c-6.2-3.1-31.2-19.8-34-21.7c0-2.4-0.3-7.3-0.3-8c0,0,0-0.1,0.1-0.1c3.8-7.8,7.3-18.3,10.1-27.6
		c7.2,4.8,16.3,5.7,22.4,5.7c3.8,0,6.5-0.4,6.8-0.4c0.1,0,0.2,0,0.2-0.1l17.2,1.4c0,0,0.1,0,0.1,0c0,0,0,0,0,0
		c2.5,1.8,9.3,6.4,15.1,7.6c0.1,0,0.1,0,0.2,0c0.2,0,0.3,0,0.5-0.1c0.7-0.4,2-1.5,2.1-3c0.1-1.5-0.9-3-3-4.4c1-0.3,3.3-0.6,8.6-0.4
		c1.3,0.2,10.2,1.4,12.3-2.5C308.9,169.1,309,168.8,308.9,168.5z M164.8,179.4c1.1-1.4,2.9-3.4,4.8-5.1c0.5,0.9,1.2,2.4,2,4.5
		l-4.9,4C166.4,181.7,165.8,180.6,164.8,179.4z M174.8,190.2c0,0.2,0.1,0.4,0.1,0.6c0,0.1-0.1,0.1-0.1,0.2c0,0.2-1.1,4.5-1.1,7.9
		c-0.1,0-0.1-0.1-0.1-0.1c-1-0.8-2.3-2.7-3.5-4.8L174.8,190.2z"/>
	<path class="st3" d="M202.5,111.3c-0.9,1.2-1.2,2.6-0.8,4.4c0,0.1,0.3,1.9,2.5,3.2c2.8,1.7,9,2.7,22-1.9c0-2.4-0.3-4.9-0.9-7.3
		c-0.4-1.6-0.9-3.1-1.5-4.6c-1.7,0.4-8.8,2.3-15,3.2C208.6,108.3,204.4,108.7,202.5,111.3z M213.6,111.1c0.4-0.7,1-1.1,1.7-1.2
		c0.1,0,0.2,0,0.3,0c1.4,0,2.6,1.2,2.9,2.8c0.1,0.9,0,1.8-0.5,2.4c-0.4,0.7-1,1.1-1.7,1.2c-1.5,0.2-2.9-1.1-3.2-2.8
		C213,112.7,213.2,111.8,213.6,111.1z"/>
	<g>
		<path class="st4" d="M165,185.6c0.1-1,0.1-3.1-2-5.2c-0.1,0-0.1-0.1-0.2-0.1c-0.1-0.1-0.2-0.2-0.3-0.3c-0.9-0.8-2.1-1.6-3.7-2.4
			c-0.5-0.2-0.7-0.8-0.5-1.3c0.2-0.5,0.8-0.7,1.3-0.5c1.5,0.7,2.7,1.5,3.7,2.2c1.8-2.2,6.6-7.6,10.5-8.8c0.5-0.2,1.1,0.1,1.2,0.7
			c0.2,0.5-0.1,1.1-0.7,1.2c-1,0.3-2.1,1-3.2,1.8c1,1.9,4,8.1,5.7,17.9c0.5,0.3,2.2,1.2,5.6,1.9c-1-5.4-5.8-28.3-15.6-40.7
			c-1.2-1.3-2.7-2.5-4-3.3c0,0.1-0.1,0.3-0.2,0.4c-0.3,0.5-8.1,11.6-13.3,17.1c0,0-0.1,0.1-0.1,0.1c-0.5,0.4-11.4,9.4-2,23.2
			c0.8,1.4,2.4,3.5,3.8,4.2C152.9,191.7,158.9,185.4,165,185.6z"/>
		<path class="st4" d="M174.3,188c-0.6-2.8-1.3-5.2-2-7.2l-5.3,4.3c0,1.2-0.3,1.9-0.3,2c0,0.1-0.1,0.1-0.1,0.1
			c0.6,1.3,1.5,3.2,2.5,5L174.3,188z"/>
		<path class="st4" d="M176.9,200.8c19,6.1,34.4,1.1,37.5-0.1c0-1.9-0.2-4.8-0.3-6.4c-25.5,3.1-34.8,0-37.7-1.5
			c-0.4,1.8-0.9,5-0.7,7.1c0,0,0,0,0,0.1C176.1,200.2,176.5,200.5,176.9,200.8z"/>
		<path class="st4" d="M168.5,150.7C168.5,150.7,168.5,150.7,168.5,150.7c10.8,13.6,15.5,38.5,16.2,42.4c4.2,0.6,10.3,0.9,19.3,0.3
			c-5.1-37.6-20.7-53.9-23-56.2c-2.1,0.2-11.8,1.3-19.2,8.8C164.4,146.7,167.4,149.6,168.5,150.7z"/>
		<path class="st4" d="M250.3,126.3c-1.2-0.3-2.4-1-3.2-2c-0.8-1-1.2-2.1-1.2-3.2L224,138.9c1.9,0.8,4.2,2,6.7,3.4L250.3,126.3z"/>
		<path class="st4" d="M251.4,124.5c0.6,0,1.1-0.2,1.6-0.5c0.6-0.5,0.9-1.2,1-2c0-0.8-0.2-1.7-0.8-2.4c-0.7-0.9-1.7-1.4-2.7-1.4
			c-0.6,0-1.1,0.2-1.5,0.5c0,0,0,0,0,0l-0.1,0.1c-1.2,1-1.2,2.9-0.1,4.3C249.4,124,250.4,124.5,251.4,124.5z"/>
		<path class="st4" d="M206.9,140.3c1.4,0,2.8-0.2,4.1-0.5c5.4-1.3,9.9-5.2,12.6-10.8c1.4-3,2.3-6.4,2.5-9.9
			c-6.2,2.1-11.3,3.2-15.5,3.2c-3.1,0-5.6-0.6-7.6-1.8c-3-1.8-3.3-4.5-3.4-4.6c-0.4-2.3,0-4.3,1.2-5.9c2.5-3.3,7.4-3.8,7.6-3.8
			c5.7-0.8,12.3-2.5,14.4-3c-4.2-8.5-11.9-14.2-20.1-14.2c-1.4,0-2.8,0.2-4.1,0.5c-11.2,2.7-17.6,16.3-14.3,30.1
			C187.4,131.6,196.8,140.3,206.9,140.3z"/>
		<path class="st4" d="M208.9,142.2c-0.7,0.1-1.3,0.1-2,0.1c-7.5,0-14.6-4.3-19.4-11.1l-3.8,5.9c3.4,3.7,11.2,13.7,17,32.1
			C203,164.4,208.5,151.9,208.9,142.2z"/>
		<path class="st4" d="M259,156.8c-0.1,0-0.3,0-0.4,0c0,0-1.2-0.4-2.3,0.3c-1.2,0.8-2,2.7-2.2,5.5c0,0,0,0.1,0,0.1
			c0,0-0.6,3.6,1.5,6.1l16.2,1.3c0,0,0,0,0,0c0,0,0,0,0.1-0.1c0-4.3,2.1-8.1,3.5-10L259,156.8z"/>
		<path class="st4" d="M218.1,138.8c-2,1.4-4.2,2.4-6.6,3c-0.2,0-0.4,0.1-0.6,0.1c-0.3,12.5-8.9,29.3-9.3,30.1
			c1.8,6.2,3.3,13.2,4.4,21.2c2.6-0.2,5.4-0.5,8.4-0.9c0,0,0,0,0,0c3.9-8,7.5-18.9,10.2-28.4c0-0.2,0-0.4,0.2-0.6
			c2.6-9.2,4.5-16.9,5-19.3C224,140.8,219.3,139.1,218.1,138.8z"/>
		<path class="st4" d="M252.1,162.4c0.3-3.5,1.3-5.8,3.1-7c0.6-0.4,1.2-0.6,1.8-0.7c-2.1-2-5.5-0.8-5.7-0.8
			c-2.7,0.7-7.3,1.5-7.5,1.5c-0.5,0.1-1.1-0.3-1.2-0.8c-0.1-0.5,0.3-1.1,0.8-1.2c0,0,1.2-0.2,2.6-0.5c-5.1-2-13-5.1-14.9-5.8
			c-0.9,3.6-2.3,9.5-4.3,16.3c8.9,6.3,21.8,6,26.5,5.6C251.5,166.2,252,162.9,252.1,162.4z"/>
		<path class="st4" d="M293.4,166.7c0-0.6,0.5-1,1-0.9c1.8,0.1,3.5,0.2,4.9,0.4c-1.9-0.9-3.7-1.2-3.7-1.2c-0.5-0.1-0.9-0.6-0.8-1.2
			c0.1-0.5,0.6-0.9,1.2-0.8c0.2,0,4.9,0.8,7.5,3.7c0,0,0,0,0,0c0.6,0.1,1.1,0.2,1.6,0.3c-0.7-1.6-3.1-4.4-10.9-5l-1.6-0.1
			c-0.3,0.2-3.6,2.4-5.5,5.5c-0.2,0.3-0.5,0.5-0.9,0.5c0,0-0.1,0-0.1,0c-0.1,0-6.7-0.9-11.9-0.8c-0.3,1.1-0.4,2.2-0.4,3.4
			c2.1,1.5,8.7,6.1,14.2,7.4c0.3-0.2,0.7-0.6,0.7-1.2c0-0.5-0.3-1.6-2.9-3.2c-0.1,0-0.1-0.1-0.1-0.1c-0.4-0.3-0.6-1-0.4-1.6
			c0.4-1.1,2.1-2.1,11.2-1.8c0,0,0.1,0,0.1,0c2.8,0.4,7.2,0.6,9.3-0.6c-1.9-0.5-5.5-1.2-11.7-1.5
			C293.8,167.8,293.4,167.3,293.4,166.7z"/>
		<path class="st4" d="M285.8,165.8c1.2-1.8,2.7-3.2,3.9-4.2l-12.2-1.1c-0.6,0.8-1.7,2.4-2.5,4.4C279.1,165,284,165.6,285.8,165.8z"
			/>
		<path class="st4" d="M164.6,187.6c-5,0.1-10.2,5.4-11.8,7.2c1.7,1.7,6.3,6.5,10.1,8.3c0.1,0,0.1,0.1,0.2,0.1l1.5,1.3
			c2.9-2.6,5.4-4.3,6.8-5.1C168.7,196.4,165.5,189.7,164.6,187.6z"/>
		<path class="st4" d="M172.5,217.5c0,0,0.3,0,0.3,0c0,0,0.2-0.4-0.1-1.6c-0.1,0-0.1-0.1-0.2-0.1c-1.2-1.5-1.7-2.6-1.6-3.4
			c0.1-0.3,0.2-0.5,0.3-0.6c0.3-0.5,1.4-2.7,1-5c-0.1-0.5,0.3-1.1,0.8-1.2c0.5-0.1,1.1,0.3,1.2,0.8c0.5,3-1,5.9-1.3,6.4
			c0.1,0.2,0.3,0.7,1.1,1.7c0,0,0.1,0,0.1,0c0.1,0,6.4,4.5,10.9,4.4c0-0.1,0-0.2,0-0.3c-0.1-0.3-0.5-0.7-1.1-1.1
			c-0.5-0.2-3.7-1.5-6.8-3.9c-0.4-0.3-0.5-1-0.2-1.4c0.3-0.4,1-0.5,1.4-0.2c3,2.3,6.3,3.6,6.3,3.6c0,0,0.1,0,0.1,0.1
			c0.6,0.3,1,0.7,1.4,1c0.4-0.2,0.5-0.4,0.5-0.4c0-0.2-0.7-0.8-1.5-1.2c-1.8-0.7-4.8-3.8-5.1-4.1c-0.4-0.4-0.4-1,0-1.4
			c0.4-0.4,1-0.4,1.4,0c1.1,1.2,3.3,3.2,4.5,3.7c0.2,0.1,0.9,0.4,1.5,0.9c0.1-0.1,0.2-0.3,0.2-0.4c0-0.5-0.7-1.1-1.1-1.4
			c-2.8-1.8-4.8-4.5-5.1-4.9c-2.2-2.4-4.2-4.1-5.7-5.2c0,0,0,0,0,0c-1.3-0.9-2.3-1.4-2.7-1.7c-1.1,0.6-4,2.4-7.4,5.6
			C165.7,208.2,166.5,214.6,172.5,217.5z"/>
		<path class="st4" d="M161.9,256.5l-6.6,1.2c-0.2,0-0.4,0-0.5,0l-6.6-2.4c-0.9,0-1.6,0.4-2.2,1.1c-3.1,3.7-1.9,15.1-1.2,19.2
			c1.2,9.1,15.3,9.1,18.6,9l0.9-3.1c0.6-5.8-6-7.5-6.3-7.6c-0.5-0.1-0.8-0.6-0.7-1.1l0.5-3.5c0.1-0.5,0.5-0.9,1.1-0.9
			c2.6,0.2,4.4,0,6.6-0.3c0.1,0,0.2,0,0.4,0C162,263.4,161.9,257.3,161.9,256.5C161.9,256.6,161.9,256.5,161.9,256.5z"/>
		<path class="st4" d="M215,202.6c-2.4,0.9-9.3,3.2-19.1,3.2c-4.5,0-9.7-0.5-15.2-1.9c0.7,0.7,1.5,1.5,2.3,2.4c0,0,0.1,0.1,0.1,0.1
			c0,0,1.9,2.7,4.6,4.4c0.2,0.1,2,1.2,2.1,2.9c0,0.6-0.1,1.4-1,2.3c0,0.1,0.1,0.2,0.1,0.4c0,0.9-0.5,1.6-1.6,2.2
			c0.1,1.1-0.7,1.9-0.8,2c-0.2,0.2-0.4,0.3-0.6,0.3c-0.3,0-0.6,0.1-0.9,0.1c-3.5,0-7.7-2.1-10-3.5c0,0.6-0.2,1.1-0.7,1.6
			c-1,0.9-2.3,0.4-2.4,0.4c-0.3-0.1-0.5-0.3-0.8-0.4c0.1,4.9,0.5,12.1,0.5,12.2c0,6.1,0.1,17,0.1,18.3c0.2,0.9-0.8,1-0.8,1
			c-1.2,0.1-1.2-0.8-1.2-0.9c0,0,0-0.7,0-1.9c-1,0.2-2.7,0.6-4,2c-1.4,1.5-1.9,3.8-1.6,6.8c0,0,0,0.1,0,0.1c0,0.1-0.1,7.1,4.7,11.4
			c0,0,0,0,0,0c0.2,0.1,0.3,0.2,0.4,0.3c3.2,2.6,7.9,3.6,13.8,2.8c11.5-1.6,10.9-14.6,10.9-15.2c0-0.1,0-0.1,0-0.2
			c2-16.3,7.9-24.4,8.2-24.7c0.2-0.3,0.6-0.4,0.9-0.4c17.8,1.8,29.3,9.8,29.7,10.2c0.3,0.2,0.5,0.7,0.4,1.1
			c-0.6,2.3-0.3,4.2,0.5,5.7c0.2,0.4,0.3,0.6,0.5,0.8c2,2.8,5.4,3.9,5.7,3.9c12.9,4.1,15.6-1.5,15.7-1.6c0,0,0-0.1,0-0.1
			c8.8-15.2-4.8-25.1-5.9-25.9C242.7,221.2,216.2,203.5,215,202.6C215,202.7,215,202.6,215,202.6z"/>
		<path class="st4" d="M233.2,250.4l-5.8,14.2c-0.1,0.4-0.5,0.6-0.9,0.6c-0.1,0-3.2,0.4-5,6c0,0.1,0,0.1-0.1,0.2
			c0,0-0.8,2.1,3.8,5.2c0,0,5.8,3.7,12.7,5.6c0.1,0,8.4,2.2,14.7,1.7c1.7,0,4.6-0.5,5.6-1.6c0.1-1.2,0-6.7-7.7-8.4
			c-0.9-0.3-7.6-2.4-9.5-4.3c-0.3-0.3-0.4-0.6-0.2-1c0.1-0.4,2.9-9.2,5-13.1c-1.9-0.2-4.1-0.7-6.7-1.5
			C237.3,253.6,235,252.4,233.2,250.4z"/>
		<path class="st4" d="M152.2,197.1l-14.5,11.7c0,0,0.1,0,0.1,0l-0.1,0l-2.8,2.3c-0.6,0.5-0.9,1.2-1,2c0,0.8,0.2,1.7,0.8,2.4
			c0.7,0.9,1.7,1.4,2.7,1.4c0.6,0,1.1-0.2,1.6-0.5c0,0,0,0,0.1-0.1l0.1,0l2.8-2.3l15.2-12.4C155.3,200.2,153.4,198.4,152.2,197.1z
			 M140.2,210.2c-0.2-0.2-0.4-0.3-0.6-0.5C139.8,209.9,140,210,140.2,210.2z M139.5,209.6c-0.5-0.3-1-0.6-1.6-0.7
			C138.4,209,139,209.3,139.5,209.6z M140,215.1c0-0.2,0.1-0.4,0.1-0.6C140,214.7,140,214.9,140,215.1z M139.8,215.6
			C139.8,215.6,139.8,215.5,139.8,215.6C139.8,215.5,139.8,215.6,139.8,215.6z"/>
	</g>
	<path class="st5" d="M225.8,140.7l22.3-16.1c0,0,1.2,1.4,4.7,0.6l-21.8,18L225.8,140.7z"/>
	<g class="st5">
		<path d="M166.6,190.7c0.7,1.2,1.5,2.3,2.3,3.5l6.6-5.3l-1.3-4.4L166.6,190.7C166.6,190.6,166.6,190.6,166.6,190.7z"/>
		<path d="M158.7,201.6c-0.1,0-0.2,0-0.3,0c-0.7,0-1.5-0.6-1.9-1.2c-0.2-0.3-0.4-0.7-0.5-1.1l-21.1,17.1c0,0,1.5,2.8,5.5,0.9
			l18.9-15.3C159.1,201.8,158.9,201.7,158.7,201.6z"/>
	</g>
	<path class="st5" d="M160.4,151.3c0,0,5.1-0.2,9.9,20.4c0,0-0.4-0.5,5.9,19.9l7,2.3c0,0-3.1-18.4-7.5-27.3c0,0-8.4-21.5-14.9-17.9
		L160.4,151.3z"/>
	<path class="st5" d="M209.8,147.2l-0.3-6.1c0,0-14,1.6-21.9-11.8l-3.3,6.4c0,0,8.3,13.2,21,12.4c-1.3,5-3.8,13.9-6.4,17l0.8,6.3
		c0,0,5.9-7.9,9.7-23.9C209.5,147.3,209.6,147.3,209.8,147.2z"/>
	<path class="st5" d="M227.3,157.9c0,0,14.4,9,25,6.6c0,0,13.1,3.5,20.6,2.8c0,0,8.3,8.8,12.6,10v0.8l-11.6-6.1l-18.8-2.4
		c0,0-12.9,3.8-29.4-5.3L227.3,157.9z"/>
	<path class="st5" d="M183.1,190.7c0,0,23.6,1.9,32.8-0.4l-0.8,2.1c0,0-20.5,4.5-31.9,1.4L183.1,190.7z"/>
	<path class="st5" d="M164.3,263.8l-8.2,0.8c0,0-4.7,11,3,12.3c0,0,6-0.2,5.8,6.2c0,0,2.3-7.3-6-10l-0.3-3.3c0,0,6.6-0.3,9-0.9
		C167.8,269,164,265.4,164.3,263.8z"/>
	<path class="st5" d="M231.1,253.4c0,0,6.6,5.8,14.5,4.6l1.5-3.1c0,0,7.5,0.4,10.1-5.5c0,0-18.6,2.6-25.5-5.4l0.6,3.6L231.1,253.4z"
		/>
	<path class="st5" d="M142.5,176.8c0,0,3.8,12,11.2,15.5c0,0,7,8.3,13.8,10.9c0,0-1.4,10.4,5.9,14.2l-0.1,0.9c0,0-7.1-0.4-8.4-11.9
		c0,0-9.3-4.9-13.3-11.1C151.6,195.2,140.9,187.5,142.5,176.8z"/>
	<path class="st5" d="M195.5,249.3c0,0-4.6,1.8-5,8.5c0,0-5.8,15.8-24.4,8c0,0,1.6,8.5,20,6c0,0,7.8-3.1,8.6-12.4
		C194.8,259.4,194.6,252.4,195.5,249.3z"/>
	<path class="st5" d="M175.3,198.5c0,0,28,5.9,40.4,0.4l0.1,2.5l3.8,2.6c0,0-17.5,9.9-35.6,4.4l-3-2.6l-2.6-2.5l-3.5-2.6
		L175.3,198.5z"/>
	<path class="st6" d="M176.2,139.1c0,0,16.1,19.1,23.4,42.1c0,0-6.9-29.6-18.6-42.4C180.9,138.8,179.1,137.8,176.2,139.1z"/>
	<path class="st6" d="M221.8,141.8c0,0,4.3,1.4,6.5,3.2c0,0-6.6,29.2-11.4,37C216.9,181.9,225.4,152.8,221.8,141.8z"/>
	<path class="st6" d="M199.4,90.7c0,0,11.8-3.9,21.6,11.9l-3.5,1C217.5,103.5,212.1,92.2,199.4,90.7z"/>
	<path class="st6" d="M219.6,122.5l4.9-0.6c0,0-0.6,10.1-7.4,13.1C217.1,135,222.3,127.9,219.6,122.5z"/>
	<path class="st6" d="M218.2,207.4l24.1,19.1c0,0,12,10.8,11.8,21.3c0,0,5.3-11.5-6.3-22.2L218.2,207.4z"/>
	<path class="st6" d="M155,178c0,0,6.1,3.6,6.1,7.4l3-0.6C164.1,184.8,162.4,179,155,178z"/>
	<path class="st6" d="M145.2,177.4c0,0,0.8-6.8,6-10.3l1.3-1.3l8.5-11.3l-6.3,13C154.7,167.4,149.3,171.1,145.2,177.4z"/>
	<path class="st6" d="M162.4,190c0,0,4.6,8,6.1,9.6l1.4-0.4c0,0-4.3-7.3-5.3-9.9C164.6,189.3,162.8,189.3,162.4,190z"/>
	<path class="st6" d="M248.6,121c0,0,0.1-2,1.7-2.3c0,0,2.7-0.1,3.3,3.1C253.5,121.8,250.5,117.7,248.6,121z"/>
	<path class="st6" d="M231.9,148.8l11.5,4.5c0,0-2.3,0.3-3.4,1.6l-9-2.9L231.9,148.8z"/>
	<path class="st6" d="M245.3,156.4l5.4-1.3c0,0,2.3-0.5,3.1,0.1l-1.8,1.3l-0.5,0.8C251.6,157.3,249,156.7,245.3,156.4z"/>
	<path class="st6" d="M257.8,157.4c0,0-1.8,0.8-2,2l16,3c0,0,0.4-1,1.5-1.7L257.8,157.4z"/>
	<polygon class="st6" points="277.8,161.1 277.3,162.3 285.8,163.2 288.3,161.9 	"/>
	<path class="st6" d="M171.9,202.8c0,0,5.1,2.3,8.2,5.4c0,0-3.1-4.8-6.6-6.7L171.9,202.8z"/>
	<polygon class="st6" points="225.3,138.7 245.3,122.6 226,139.1 	"/>
	<polygon class="st6" points="134.8,211.9 152.1,198.4 152.6,199.4 	"/>
	<polygon class="st6" points="167.5,185.3 167.5,186.8 172.4,183.7 172.2,182.2 	"/>
	<path class="st6" d="M179.7,194.9c0,0,17.4,3.8,32.9,0.2C212.6,195,198.7,202.6,179.7,194.9z"/>
	<path class="st5" d="M208.2,136.1c0,0,0.3-7-5.7-9.2c0,0-8.5-0.3-7.5-9.8s7.5-11.7,0.7-16.2c0,0-9.5-1.8-10.5,11.8
		c0,0,0.7,20,19.8,25.8C205,138.6,208.3,139.1,208.2,136.1z"/>
</g>
<g>
	<path class="st1" d="M330.6,133.3h16.4c0.1,0,0.1,0.1,0.1,0.2v54.8H426c0.1,0,0.1,0.1,0.1,0.1v16.4c0,0.1,0,0.1-0.1,0.1h-95.3
		c-0.1,0-0.1,0-0.1-0.1v-71.4C330.5,133.3,330.5,133.3,330.6,133.3z"/>
	<path class="st1" d="M435.6,133.3h95.2c0.1,0,0.1,0,0.1,0.1v16.4c0,0.1,0,0.2-0.1,0.2H452v10.6h62.1c0.1,0,0.2,0.1,0.2,0.1v16.5
		c0,0.1-0.1,0.1-0.2,0.1H452v10.6h78.8c0.1,0,0.1,0.1,0.1,0.1v16.4c0,0.1,0,0.1-0.1,0.1h-95.2c-0.1,0-0.1,0-0.1-0.1v-71.3
		C435.4,133.4,435.5,133.3,435.6,133.3z"/>
	<path class="st1" d="M575.7,133.4h24.8c1.2,2.2,4.3,8.6,9.4,19l25.9,52.5l-0.2,0H616c-0.1,0-1.3-2.4-3.6-7.1
		c-2.4-4.8-3.6-7.2-3.6-7.2h-41.2c-0.8,1.5-3.2,6.3-7.1,14.2l-0.2,0h-19.7l-0.2,0c22.4-45.4,33.8-68.5,34.2-69.4
		C575.3,134.1,575.7,133.4,575.7,133.4z M588.1,148.7l-12.3,25.2h24.8v0C593.5,159.5,589.3,151.2,588.1,148.7L588.1,148.7z"/>
	<path class="st1" d="M645.5,133.2h77.6c5.9,0,10.8,2.5,14.7,7.6c2.1,3.2,3.2,6.6,3.2,10.2v36c0,5.8-2.5,10.7-7.6,14.6
		c-3.2,2.1-6.6,3.2-10.2,3.2h-77.6c-0.1,0-0.2,0-0.2-0.1v-71.4C645.3,133.3,645.4,133.2,645.5,133.2z M662.1,150v38.2h61
		c0.8-0.1,1.2-0.5,1.2-1.2v-35.8c-0.1-0.8-0.5-1.2-1.2-1.2H662.1z"/>
	<path class="st1" d="M330.6,211.1h19.1c15.6,16.2,30.3,31.5,44.2,46v-45.8c0-0.1,0.1-0.1,0.1-0.1h13.2c0.1,0,0.1,0,0.1,0.1V271
		c0,0.1,0,0.1-0.1,0.1h-19.1c-15.6-16.2-30.3-31.5-44.2-46V271c0,0.1,0,0.1-0.1,0.1h-13.2c-0.1,0-0.1,0-0.1-0.1v-59.8
		C330.5,211.2,330.5,211.1,330.6,211.1z"/>
	<path class="st1" d="M415,211.1h19.2l19.2,20c6.2-6.5,12.6-13.2,19.2-20h19.1v0c-11.7,12.2-22.3,23.2-31.6,33V271
		c0,0.1,0,0.1-0.1,0.1h-13.3c-0.1,0-0.1,0-0.1-0.1v-26.9C434.9,231.9,424.3,220.9,415,211.1L415,211.1z"/>
	<path class="st1" d="M499.6,211.1h19.1c15.6,16.2,30.3,31.5,44.2,46v-45.8c0-0.1,0.1-0.1,0.1-0.1h13.2c0.1,0,0.1,0,0.1,0.1V271
		c0,0.1,0,0.1-0.1,0.1h-19.1c-15.6-16.2-30.3-31.5-44.2-46V271c0,0.1,0,0.1-0.1,0.1h-13.2c-0.1,0-0.1,0-0.1-0.1v-59.8
		C499.4,211.2,499.5,211.1,499.6,211.1z"/>
	<path class="st1" d="M647.5,211.1h13.3c0.1,0,0.1,0,0.1,0.1v45c0,4.9-2,9-6.1,12.3c-2.6,1.8-5.3,2.7-8.2,2.7h-48.3
		c-4.2,0-7.8-1.8-11-5.5c-2.1-2.9-3.2-6-3.2-9.4l0.1-0.1h13.2l0.4,0.8c0.2,0.1,0.5,0.2,0.6,0.2h48.1c0.6-0.1,0.9-0.4,0.9-1v-44.9
		C647.4,211.1,647.4,211.1,647.5,211.1z"/>
	<path class="st1" d="M696.8,211.2h20c1,1.9,3.5,7.2,7.6,16l20.8,44l-0.1,0h-15.9c-0.1,0-1.1-2-2.9-5.9c-1.9-4-2.9-6-2.9-6h-33.1
		c-0.7,1.3-2.6,5.3-5.7,11.9l-0.1,0h-15.9l-0.1,0c18-38,27.2-57.4,27.5-58.2C696.4,211.8,696.7,211.2,696.8,211.2z M706.7,224
		l-9.9,21.1h20v0C711,233.1,707.7,226.1,706.7,224L706.7,224z"/>
</g>
</svg>
