<?xml version="1.0" encoding="utf-8"?>
<!-- Generator: Adobe Illustrator 22.1.0, SVG Export Plug-In . SVG Version: 6.00 Build 0)  -->
<svg version="1.1" id="Layer_2" xmlns="http://www.w3.org/2000/svg" xmlns:xlink="http://www.w3.org/1999/xlink" x="0px" y="0px"
	 viewBox="0 0 669 266" style="enable-background:new 0 0 669 266;" xml:space="preserve">
<style type="text/css">
	.st0{fill:#68BFEA;}
	.st1{fill:#FFFFFF;}
	.st2{opacity:0.2;}
	.st3{fill:#F2B686;}
	.st4{fill:#303030;}
	.st5{fill:#FFFFFF;stroke:#000000;stroke-miterlimit:10;}
	.st6{opacity:0.4;}
	.st7{fill:#565656;}
</style>
<path class="st0" d="M-108-51"/>
<g>
	<path class="st1" d="M305.5,73.2"/>
</g>
<g>
	<ellipse class="st2" cx="94" cy="232.3" rx="71.7" ry="11.7"/>
	<path d="M200.9,117.5c-0.1-0.3-0.3-0.5-0.5-0.6c0,0-0.4-0.1-1-0.3c-0.3-1.7-2.1-6.7-13-7.6l-16.6-1.4c-0.1-0.1-0.3-0.2-0.4-0.2
		l-17.7-3.5c-2.2-3.9-6.7-3.6-8.9-2.9c-0.3,0.1-0.7,0.2-1.1,0.3c-0.1-0.1-0.1-0.1-0.2-0.1c-4.6-1.7-16.2-6.3-17.8-6.9
		c0.2-0.7,0.3-1.1,0.3-1.4l21.8-17.7c0.2-0.1,0.3-0.3,0.3-0.5c0.1-0.1,0.2-0.1,0.2-0.2c1-0.8,1.6-2,1.7-3.4c0.1-1.3-0.4-2.7-1.2-3.8
		c-1.1-1.3-2.7-2.2-4.3-2.2c-1.1,0-2,0.3-2.8,1c0,0,0,0-0.1,0.1L113.9,87c-0.8-0.3-1.4-0.6-2-0.7c2.2-2,4-4.5,5.5-7.4
		c2.9-6.1,3.6-13.5,1.8-20.7c-3.1-12.8-13.4-22.2-24.4-22.2c-1.5,0-3.1,0.2-4.6,0.6c-12.3,3-19.4,17.6-15.7,32.5
		c0.8,3.3,2.1,6.4,3.8,9.2l-4,6.3c-0.1-0.1-0.3-0.2-0.3-0.3c-0.2-0.2-0.4-0.3-0.7-0.2c-0.5,0-13.6,0.5-22.4,11
		c-0.2,0.2-0.2,0.4-0.2,0.7c-0.9,1.3-0.7,3.5-0.4,5.3c-2.8,3.8-7,9.4-10.2,12.7c-1,0.8-12.4,11-2.4,25.7c0.3,0.4,2.5,4.1,5.1,5.1
		c0,0,0,0,0.1,0.1L26,158.3c-0.1,0.1-0.2,0.2-0.3,0.4c0,0,0,0,0,0c-1,0.8-1.6,2-1.7,3.4c-0.1,1.3,0.4,2.7,1.2,3.8
		c1.1,1.3,2.7,2.2,4.3,2.2c0.7,0,1.4-0.2,2-0.5c0.2,0,0.4-0.1,0.6-0.2l18.9-15.3c1,0.7,2,1.4,3,1.8l1.7,1.5
		c0.1,1.9,0.8,7.5,5.3,11.2c0,4.8,0.5,13.6,0.5,13.6c0,4.1,0,10.4,0.1,14.5c-1.2,0.2-3.6,0.7-5.4,2.7c-1.4,1.6-2.1,3.6-2.2,6.2
		l-6.6,1.2l-6.5-2.4c-0.1,0-0.2-0.1-0.3-0.1c-1.5,0-2.8,0.6-3.9,1.8c-4.3,5.1-1.7,20.2-1.6,20.8c1.3,9.8,14,10.8,19.2,10.8
		c1.2,0,2-0.1,2.2-0.1c0.4,0,0.8-0.3,0.9-0.7l1.2-3.8c0-0.1,0-0.1,0-0.2c0.6-5.5-3.8-8.5-6.9-9.6l0.2-1.7c2.3,0.1,4.1-0.1,6.1-0.4
		c0.6-0.1,1.3-0.2,2-0.2c2.8,2.3,6.5,3.4,11,3.4c1.3,0,2.8-0.1,4.3-0.3c12.7-1.8,12.7-15.9,12.6-17.2c1.7-13.6,6.3-21.3,7.5-23.2
		c14.8,1.6,25.2,7.8,27.6,9.4c-0.5,2.6,0,4.8,0.9,6.5l-6,14.9c-1.3,0.4-4.4,1.8-6.1,7.3c-0.3,0.7-1.2,3.8,4.5,7.7
		c0.2,0.2,6.1,3.9,13.3,5.9c0.3,0.1,7.1,1.9,13.2,1.9c0.7,0,1.4,0,2.1-0.1c0.6,0,5.6-0.2,7.3-2.7c0.1-0.1,0.1-0.3,0.2-0.4
		c0-0.1,1.2-8.6-9.2-10.9c-2.4-0.8-6.5-2.3-8.1-3.4c0.8-2.3,3.4-10.5,5.1-13c6.8,0,8.9-3.7,9.1-4.2c9.8-17.1-6.4-28.4-6.6-28.5
		c0,0-0.1,0-0.1-0.1c-6.2-3.1-31.2-19.8-34-21.7c0-2.4-0.3-7.3-0.3-8c0,0,0-0.1,0.1-0.1c3.8-7.8,7.3-18.3,10.1-27.6
		c7.2,4.8,16.3,5.7,22.4,5.7c3.8,0,6.5-0.4,6.8-0.4c0.1,0,0.2,0,0.2-0.1l17.2,1.4c0,0,0.1,0,0.1,0c0,0,0,0,0,0
		c2.5,1.8,9.3,6.4,15.1,7.6c0.1,0,0.1,0,0.2,0c0.2,0,0.3,0,0.5-0.1c0.7-0.4,2-1.5,2.1-3c0.1-1.5-0.9-3-3-4.4c1-0.3,3.3-0.6,8.6-0.4
		c1.3,0.2,10.2,1.4,12.3-2.5C200.9,118.1,201,117.8,200.9,117.5z M56.8,128.4c1.1-1.4,2.9-3.4,4.8-5.1c0.5,0.9,1.2,2.4,2,4.5l-4.9,4
		C58.4,130.7,57.8,129.6,56.8,128.4z M66.8,139.2c0,0.2,0.1,0.4,0.1,0.6c0,0.1-0.1,0.1-0.1,0.2c0,0.2-1.1,4.5-1.1,7.9
		c-0.1,0-0.1-0.1-0.1-0.1c-1-0.8-2.3-2.7-3.5-4.8L66.8,139.2z"/>
	<path class="st3" d="M94.5,60.3c-0.9,1.2-1.2,2.6-0.8,4.4c0,0.1,0.3,1.9,2.5,3.2c2.8,1.7,9,2.7,22-1.9c0-2.4-0.3-4.9-0.9-7.3
		c-0.4-1.6-0.9-3.1-1.5-4.6c-1.7,0.4-8.8,2.3-15,3.2C100.6,57.3,96.4,57.7,94.5,60.3z M105.6,60.1c0.4-0.7,1-1.1,1.7-1.2
		c0.1,0,0.2,0,0.3,0c1.4,0,2.6,1.2,2.9,2.8c0.1,0.9,0,1.8-0.5,2.4c-0.4,0.7-1,1.1-1.7,1.2c-1.5,0.2-2.9-1.1-3.2-2.8
		C105,61.7,105.2,60.8,105.6,60.1z"/>
	<g>
		<path class="st1" d="M57,134.6c0.1-1,0.1-3.1-2-5.2c-0.1,0-0.1-0.1-0.2-0.1c-0.1-0.1-0.2-0.2-0.3-0.3c-0.9-0.8-2.1-1.6-3.7-2.4
			c-0.5-0.2-0.7-0.8-0.5-1.3c0.2-0.5,0.8-0.7,1.3-0.5c1.5,0.7,2.7,1.5,3.7,2.2c1.8-2.2,6.6-7.6,10.5-8.8c0.5-0.2,1.1,0.1,1.2,0.7
			c0.2,0.5-0.1,1.1-0.7,1.2c-1,0.3-2.1,1-3.2,1.8c1,1.9,4,8.1,5.7,17.9c0.5,0.3,2.2,1.2,5.6,1.9c-1-5.4-5.8-28.3-15.6-40.7
			c-1.2-1.3-2.7-2.5-4-3.3c0,0.1-0.1,0.3-0.2,0.4c-0.3,0.5-8.1,11.6-13.3,17.1c0,0-0.1,0.1-0.1,0.1c-0.5,0.4-11.4,9.4-2,23.2
			c0.8,1.4,2.4,3.5,3.8,4.2C44.9,140.7,50.9,134.5,57,134.6z"/>
		<path class="st4" d="M66.3,137c-0.6-2.8-1.3-5.2-2-7.2l-5.3,4.3c0,1.2-0.3,1.9-0.3,2c0,0.1-0.1,0.1-0.1,0.1c0.6,1.3,1.5,3.2,2.5,5
			L66.3,137z"/>
		<path class="st4" d="M68.9,149.8c19,6.1,34.4,1.1,37.5-0.1c0-1.9-0.2-4.8-0.3-6.4c-25.5,3.1-34.8,0-37.7-1.5
			c-0.4,1.8-0.9,5-0.7,7.1c0,0,0,0,0,0.1C68.1,149.2,68.5,149.5,68.9,149.8z"/>
		<path class="st1" d="M60.5,99.7C60.5,99.7,60.5,99.7,60.5,99.7c10.8,13.6,15.5,38.5,16.2,42.4c4.2,0.6,10.3,0.9,19.3,0.3
			c-5.1-37.6-20.7-53.9-23-56.2c-2.1,0.2-11.8,1.3-19.2,8.8C56.4,95.7,59.4,98.6,60.5,99.7z"/>
		<path class="st4" d="M142.3,75.4c-1.2-0.3-2.4-1-3.2-2c-0.8-1-1.2-2.1-1.2-3.2L116,87.9c1.9,0.8,4.2,2,6.7,3.4L142.3,75.4z"/>
		<path class="st4" d="M143.4,73.5c0.6,0,1.1-0.2,1.6-0.5c0.6-0.5,0.9-1.2,1-2c0-0.8-0.2-1.7-0.8-2.4c-0.7-0.9-1.7-1.4-2.7-1.4
			c-0.6,0-1.1,0.2-1.5,0.5c0,0,0,0,0,0l-0.1,0.1c-1.2,1-1.2,2.9-0.1,4.3C141.4,73,142.4,73.5,143.4,73.5z"/>
		<path class="st1" d="M98.9,89.3c1.4,0,2.8-0.2,4.1-0.5c5.4-1.3,9.9-5.2,12.6-10.8c1.4-3,2.3-6.4,2.5-9.9
			c-6.2,2.1-11.3,3.2-15.5,3.2c-3.1,0-5.6-0.6-7.6-1.8c-3-1.8-3.3-4.5-3.4-4.6c-0.4-2.3,0-4.3,1.2-5.9c2.5-3.3,7.4-3.8,7.6-3.8
			c5.7-0.8,12.3-2.5,14.4-3c-4.2-8.5-11.9-14.2-20.1-14.2c-1.4,0-2.8,0.2-4.1,0.5c-11.2,2.7-17.6,16.3-14.3,30.1
			C79.4,80.6,88.8,89.3,98.9,89.3z"/>
		<path class="st1" d="M100.9,91.2c-0.7,0.1-1.3,0.1-2,0.1c-7.5,0-14.6-4.3-19.4-11.1l-3.8,5.9c3.4,3.7,11.2,13.7,17,32.1
			C95,113.5,100.5,100.9,100.9,91.2z"/>
		<path class="st1" d="M151,105.9c-0.1,0-0.3,0-0.4,0c0,0-1.2-0.4-2.3,0.3c-1.2,0.8-2,2.7-2.2,5.5c0,0,0,0.1,0,0.1
			c0,0-0.6,3.6,1.5,6.1l16.2,1.3c0,0,0,0,0,0c0,0,0,0,0.1-0.1c0-4.3,2.1-8.1,3.5-10L151,105.9z"/>
		<path class="st1" d="M110.1,87.8c-2,1.4-4.2,2.4-6.6,3c-0.2,0-0.4,0.1-0.6,0.1c-0.3,12.5-8.9,29.3-9.3,30.1
			c1.8,6.2,3.3,13.2,4.4,21.2c2.6-0.2,5.4-0.5,8.4-0.9c0,0,0,0,0,0c3.9-8,7.5-18.9,10.2-28.4c0-0.2,0-0.4,0.2-0.6
			c2.6-9.2,4.5-16.9,5-19.3C116,89.8,111.3,88.1,110.1,87.8z"/>
		<path class="st1" d="M144.1,111.4c0.3-3.5,1.3-5.8,3.1-7c0.6-0.4,1.2-0.6,1.8-0.7c-2.1-2-5.5-0.8-5.7-0.8
			c-2.7,0.7-7.3,1.5-7.5,1.5c-0.5,0.1-1.1-0.3-1.2-0.8c-0.1-0.5,0.3-1.1,0.8-1.2c0,0,1.2-0.2,2.6-0.5c-5.1-2-13-5.1-14.9-5.8
			c-0.9,3.6-2.3,9.5-4.3,16.3c8.9,6.3,21.8,6,26.5,5.6C143.5,115.2,144,111.9,144.1,111.4z"/>
		<path class="st1" d="M185.4,115.7c0-0.6,0.5-1,1-0.9c1.8,0.1,3.5,0.2,4.9,0.4c-1.9-0.9-3.7-1.2-3.7-1.2c-0.5-0.1-0.9-0.6-0.8-1.2
			c0.1-0.5,0.6-0.9,1.2-0.8c0.2,0,4.9,0.8,7.5,3.7c0,0,0,0,0,0c0.6,0.1,1.1,0.2,1.6,0.3c-0.7-1.6-3.1-4.4-10.9-5l-1.6-0.1
			c-0.3,0.2-3.6,2.4-5.5,5.5c-0.2,0.3-0.5,0.5-0.9,0.5c0,0-0.1,0-0.1,0c-0.1,0-6.7-0.9-11.9-0.8c-0.3,1.1-0.4,2.2-0.4,3.4
			c2.1,1.5,8.7,6.1,14.2,7.4c0.3-0.2,0.7-0.6,0.7-1.2c0-0.5-0.3-1.6-2.9-3.2c-0.1,0-0.1-0.1-0.1-0.1c-0.4-0.3-0.6-1-0.4-1.6
			c0.4-1.1,2.1-2.1,11.2-1.8c0,0,0.1,0,0.1,0c2.8,0.4,7.2,0.6,9.3-0.6c-1.9-0.5-5.5-1.2-11.7-1.5
			C185.8,116.8,185.4,116.3,185.4,115.7z"/>
		<path class="st4" d="M177.8,114.8c1.2-1.8,2.7-3.2,3.9-4.2l-12.2-1.1c-0.6,0.8-1.7,2.4-2.5,4.4C171.1,114,176,114.6,177.8,114.8z"
			/>
		<path class="st1" d="M56.6,136.6c-5,0.1-10.2,5.4-11.8,7.2c1.7,1.7,6.3,6.5,10.1,8.3c0.1,0,0.1,0.1,0.2,0.1l1.5,1.3
			c2.9-2.6,5.4-4.3,6.8-5.1C60.7,145.4,57.5,138.7,56.6,136.6z"/>
		<path class="st1" d="M64.5,166.5c0,0,0.3,0,0.3,0c0,0,0.2-0.4-0.1-1.6c-0.1,0-0.1-0.1-0.2-0.1c-1.2-1.5-1.7-2.6-1.6-3.4
			c0.1-0.3,0.2-0.5,0.3-0.6c0.3-0.5,1.4-2.7,1-5c-0.1-0.5,0.3-1.1,0.8-1.2c0.5-0.1,1.1,0.3,1.2,0.8c0.5,3-1,5.9-1.3,6.4
			c0.1,0.2,0.3,0.7,1.1,1.7c0,0,0.1,0,0.1,0c0.1,0,6.4,4.5,10.9,4.4c0-0.1,0-0.2,0-0.3c-0.1-0.3-0.5-0.7-1.1-1.1
			c-0.5-0.2-3.7-1.5-6.8-3.9c-0.4-0.3-0.5-1-0.2-1.4c0.3-0.4,1-0.5,1.4-0.2c3,2.3,6.3,3.6,6.3,3.6c0,0,0.1,0,0.1,0.1
			c0.6,0.3,1,0.7,1.4,1c0.4-0.2,0.5-0.4,0.5-0.4c0-0.2-0.7-0.8-1.5-1.2c-1.8-0.7-4.8-3.8-5.1-4.1c-0.4-0.4-0.4-1,0-1.4
			c0.4-0.4,1-0.4,1.4,0c1.1,1.2,3.3,3.2,4.5,3.7c0.2,0.1,0.9,0.4,1.5,0.9c0.1-0.1,0.2-0.3,0.2-0.4c0-0.5-0.7-1.1-1.1-1.4
			c-2.8-1.8-4.8-4.5-5.1-4.9c-2.2-2.4-4.2-4.1-5.7-5.2c0,0,0,0,0,0c-1.3-0.9-2.3-1.4-2.7-1.7c-1.1,0.6-4,2.4-7.4,5.6
			C57.7,157.2,58.5,163.6,64.5,166.5z"/>
		<path class="st1" d="M53.9,205.5l-6.6,1.2c-0.2,0-0.4,0-0.5,0l-6.6-2.4c-0.9,0-1.6,0.4-2.2,1.1c-3.1,3.7-1.9,15.1-1.2,19.2
			c1.2,9.1,15.3,9.1,18.6,9l0.9-3.1c0.6-5.8-6-7.5-6.3-7.6c-0.5-0.1-0.8-0.6-0.7-1.1l0.5-3.5c0.1-0.5,0.5-0.9,1.1-0.9
			c2.6,0.2,4.4,0,6.6-0.3c0.1,0,0.2,0,0.4,0C54,212.5,53.9,206.3,53.9,205.5C53.9,205.6,53.9,205.6,53.9,205.5z"/>
		<path class="st5" d="M107,151.6c-2.4,0.9-9.3,3.2-19.1,3.2c-4.5,0-9.7-0.5-15.2-1.9c0.7,0.7,1.5,1.5,2.3,2.4c0,0,0.1,0.1,0.1,0.1
			c0,0,1.9,2.7,4.6,4.4c0.2,0.1,2,1.2,2.1,2.9c0,0.6-0.1,1.4-1,2.3c0,0.1,0.1,0.2,0.1,0.4c0,0.9-0.5,1.6-1.6,2.2
			c0.1,1.1-0.7,1.9-0.8,2c-0.2,0.2-0.4,0.3-0.6,0.3c-0.3,0-0.6,0.1-0.9,0.1c-3.5,0-7.7-2.1-10-3.5c0,0.6-0.2,1.1-0.7,1.6
			c-1,0.9-2.3,0.4-2.4,0.4c-0.3-0.1-0.5-0.3-0.8-0.4c0.1,4.9,0.5,12.1,0.5,12.2c0,6.1,0.1,17,0.1,18.3c0.2,0.9-0.8,1-0.8,1
			c-1.2,0.1-1.2-0.8-1.2-0.9c0,0,0-0.7,0-1.9c-1,0.2-2.7,0.6-4,2c-1.4,1.5-1.9,3.8-1.6,6.8c0,0,0,0.1,0,0.1c0,0.1-0.1,7.1,4.7,11.4
			c0,0,0,0,0,0c0.2,0.1,0.3,0.2,0.4,0.3c3.2,2.6,7.9,3.6,13.8,2.8c11.5-1.6,10.9-14.6,10.9-15.2c0-0.1,0-0.1,0-0.2
			c2-16.3,7.9-24.4,8.2-24.7c0.2-0.3,0.6-0.4,0.9-0.4c17.8,1.8,29.3,9.8,29.7,10.2c0.3,0.2,0.5,0.7,0.4,1.1
			c-0.6,2.3-0.3,4.2,0.5,5.7c0.2,0.4,0.3,0.6,0.5,0.8c2,2.8,5.4,3.9,5.7,3.9c12.9,4.1,15.6-1.5,15.7-1.6c0,0,0-0.1,0-0.1
			c8.8-15.2-4.8-25.1-5.9-25.9C134.7,170.2,108.2,152.5,107,151.6C107,151.7,107,151.7,107,151.6z"/>
		<path class="st1" d="M125.2,199.4l-5.8,14.2c-0.1,0.4-0.5,0.6-0.9,0.6c-0.1,0-3.2,0.4-5,6c0,0.1,0,0.1-0.1,0.2
			c0,0-0.8,2.1,3.8,5.2c0,0,5.8,3.7,12.7,5.6c0.1,0,8.4,2.2,14.7,1.7c1.7,0,4.6-0.5,5.6-1.6c0.1-1.2,0-6.7-7.7-8.4
			c-0.9-0.3-7.6-2.4-9.5-4.3c-0.3-0.3-0.4-0.6-0.2-1c0.1-0.4,2.9-9.2,5-13.1c-1.9-0.2-4.1-0.7-6.7-1.5
			C129.3,202.6,127,201.4,125.2,199.4z"/>
		<path class="st4" d="M44.2,146.1l-14.5,11.7c0,0,0.1,0,0.1,0l-0.1,0l-2.8,2.3c-0.6,0.5-0.9,1.2-1,2c0,0.8,0.2,1.7,0.8,2.4
			c0.7,0.9,1.7,1.4,2.7,1.4c0.6,0,1.1-0.2,1.6-0.5c0,0,0,0,0.1-0.1l0.1,0l2.8-2.3l15.2-12.4C47.3,149.2,45.4,147.4,44.2,146.1z
			 M32.2,159.2c-0.2-0.2-0.4-0.3-0.6-0.5C31.8,158.9,32,159,32.2,159.2z M31.5,158.6c-0.5-0.3-1-0.6-1.6-0.7
			C30.4,158.1,31,158.3,31.5,158.6z M32,164.1c0-0.2,0.1-0.4,0.1-0.6C32,163.7,32,163.9,32,164.1z M31.8,164.6
			C31.8,164.6,31.8,164.6,31.8,164.6C31.8,164.6,31.8,164.6,31.8,164.6z"/>
	</g>
	<path class="st6" d="M117.8,89.7l22.3-16.1c0,0,1.2,1.4,4.7,0.6l-21.8,18L117.8,89.7z"/>
	<g class="st6">
		<path d="M58.6,139.7c0.7,1.2,1.5,2.3,2.3,3.5l6.6-5.3l-1.3-4.4L58.6,139.7C58.6,139.6,58.6,139.6,58.6,139.7z"/>
		<path d="M50.7,150.6c-0.1,0-0.2,0-0.3,0c-0.7,0-1.5-0.6-1.9-1.2c-0.2-0.3-0.4-0.7-0.5-1.1l-21.1,17.1c0,0,1.5,2.8,5.5,0.9
			l18.9-15.3C51.1,150.8,50.9,150.7,50.7,150.6z"/>
	</g>
	<path class="st6" d="M52.4,100.3c0,0,5.1-0.2,9.9,20.4c0,0-0.4-0.5,5.9,19.9l7,2.3c0,0-3.1-18.4-7.5-27.2c0,0-8.4-21.5-14.9-17.9
		L52.4,100.3z"/>
	<path class="st6" d="M101.8,96.2l-0.3-6.1c0,0-14,1.6-21.9-11.8l-3.3,6.4c0,0,8.3,13.2,21,12.4c-1.3,5-3.8,13.9-6.4,17l0.8,6.3
		c0,0,5.9-7.9,9.7-23.9C101.5,96.3,101.6,96.3,101.8,96.2z"/>
	<path class="st6" d="M119.3,107c0,0,14.4,9,25,6.6c0,0,13.1,3.5,20.6,2.8c0,0,8.3,8.8,12.6,10v0.8l-11.6-6.1l-18.8-2.4
		c0,0-12.9,3.8-29.4-5.3L119.3,107z"/>
	<path class="st6" d="M75.1,139.7c0,0,23.6,1.9,32.8-0.4l-0.8,2.1c0,0-20.5,4.5-31.9,1.4L75.1,139.7z"/>
	<path class="st6" d="M56.3,212.8l-8.2,0.8c0,0-4.7,11,3,12.3c0,0,6-0.2,5.8,6.2c0,0,2.3-7.3-6-10l-0.3-3.3c0,0,6.6-0.3,9-0.9
		C59.8,218,56,214.4,56.3,212.8z"/>
	<path class="st6" d="M123.1,202.4c0,0,6.6,5.8,14.5,4.6l1.5-3.1c0,0,7.5,0.4,10.1-5.5c0,0-18.6,2.6-25.5-5.4l0.6,3.6L123.1,202.4z"
		/>
	<path class="st6" d="M34.5,125.8c0,0,3.8,12,11.2,15.5c0,0,7,8.3,13.8,10.9c0,0-1.4,10.4,5.9,14.2l-0.1,0.9c0,0-7.1-0.4-8.4-11.9
		c0,0-9.3-4.9-13.3-11.1C43.6,144.2,32.9,136.5,34.5,125.8z"/>
	<path class="st6" d="M87.5,198.3c0,0-4.6,1.8-5,8.5c0,0-5.8,15.8-24.4,8c0,0,1.6,8.5,20,6c0,0,7.8-3.1,8.6-12.4
		C86.8,208.4,86.6,201.4,87.5,198.3z"/>
	<path class="st6" d="M67.3,147.5c0,0,28,5.9,40.4,0.4l0.1,2.5l3.8,2.6c0,0-17.5,9.9-35.6,4.4l-3-2.6l-2.6-2.5l-3.5-2.6L67.3,147.5z
		"/>
	<path class="st7" d="M68.2,88.1c0,0,16.1,19.1,23.4,42.1c0,0-6.9-29.6-18.6-42.4C72.9,87.9,71.1,86.9,68.2,88.1z"/>
	<path class="st7" d="M113.8,90.8c0,0,4.3,1.4,6.5,3.2c0,0-6.6,29.2-11.4,37C108.9,130.9,117.4,101.8,113.8,90.8z"/>
	<path class="st7" d="M91.4,39.7c0,0,11.8-3.9,21.6,11.9l-3.5,1C109.5,52.5,104.1,41.2,91.4,39.7z"/>
	<path class="st7" d="M111.6,71.5l4.9-0.6c0,0-0.6,10.1-7.4,13.1C109.1,84,114.3,76.9,111.6,71.5z"/>
	<path class="st7" d="M110.2,156.5l24.1,19.1c0,0,12,10.8,11.8,21.3c0,0,5.3-11.5-6.3-22.2L110.2,156.5z"/>
	<path class="st7" d="M47,127c0,0,6.1,3.6,6.1,7.4l3-0.6C56.1,133.8,54.4,128,47,127z"/>
	<path class="st7" d="M37.2,126.5c0,0,0.8-6.8,6-10.3l1.3-1.3l8.5-11.3l-6.3,13C46.7,116.5,41.3,120.1,37.2,126.5z"/>
	<path class="st7" d="M54.4,139c0,0,4.6,8,6.1,9.6l1.4-0.4c0,0-4.3-7.3-5.3-9.9C56.6,138.3,54.8,138.4,54.4,139z"/>
	<path class="st7" d="M140.6,70c0,0,0.1-2,1.7-2.3c0,0,2.7-0.1,3.3,3.1C145.5,70.9,142.5,66.7,140.6,70z"/>
	<path class="st7" d="M123.9,97.8l11.5,4.5c0,0-2.3,0.3-3.4,1.6l-9-2.9L123.9,97.8z"/>
	<path class="st7" d="M137.3,105.4l5.4-1.3c0,0,2.3-0.5,3.1,0.1l-1.8,1.3l-0.5,0.8C143.6,106.3,141,105.7,137.3,105.4z"/>
	<path class="st7" d="M149.8,106.4c0,0-1.8,0.8-2,2l16,3c0,0,0.4-1,1.5-1.7L149.8,106.4z"/>
	<polygon class="st1" points="169.8,110.1 169.3,111.3 177.8,112.2 180.3,111 	"/>
	<path class="st7" d="M63.9,151.8c0,0,5.1,2.3,8.2,5.4c0,0-3.1-4.8-6.6-6.7L63.9,151.8z"/>
	<polygon class="st7" points="117.3,87.7 137.3,71.6 118,88.1 	"/>
	<polygon class="st7" points="26.8,161 44.1,147.5 44.6,148.5 	"/>
	<polygon class="st7" points="59.5,134.4 59.5,135.8 64.4,132.7 64.2,131.2 	"/>
	<path class="st7" d="M71.7,143.9c0,0,17.4,3.8,32.9,0.2C104.6,144,90.7,151.6,71.7,143.9z"/>
	<path class="st6" d="M100.2,85.1c0,0,0.3-7-5.7-9.2c0,0-8.5-0.3-7.5-9.8s7.5-11.7,0.7-16.2c0,0-9.5-1.8-10.5,11.8
		c0,0,0.7,20,19.8,25.8C97,87.6,100.3,88.1,100.2,85.1z"/>
</g>
<g>
	<path class="st1" d="M222.6,82.3h16.4c0.1,0,0.1,0.1,0.1,0.2v54.8H318c0.1,0,0.1,0.1,0.1,0.1v16.4c0,0.1,0,0.1-0.1,0.1h-95.3
		c-0.1,0-0.1,0-0.1-0.1V82.4C222.5,82.3,222.5,82.3,222.6,82.3z"/>
	<path class="st1" d="M327.6,82.3h95.2c0.1,0,0.1,0,0.1,0.1v16.4c0,0.1,0,0.2-0.1,0.2H344v10.6h62.1c0.1,0,0.2,0.1,0.2,0.1v16.5
		c0,0.1-0.1,0.1-0.2,0.1H344v10.6h78.8c0.1,0,0.1,0.1,0.1,0.1v16.4c0,0.1,0,0.1-0.1,0.1h-95.2c-0.1,0-0.1,0-0.1-0.1V82.5
		C327.4,82.4,327.5,82.3,327.6,82.3z"/>
	<path class="st1" d="M467.7,82.4h24.8c1.2,2.2,4.3,8.6,9.4,19l25.9,52.5l-0.2,0H508c-0.1,0-1.3-2.4-3.6-7.1
		c-2.4-4.8-3.6-7.2-3.6-7.2h-41.2c-0.8,1.5-3.2,6.3-7.1,14.2l-0.2,0h-19.7l-0.2,0c22.4-45.4,33.8-68.5,34.2-69.4
		C467.3,83.1,467.7,82.4,467.7,82.4z M480.1,97.7l-12.3,25.2h24.8v0C485.5,108.6,481.3,100.2,480.1,97.7L480.1,97.7z"/>
	<path class="st1" d="M537.5,82.2h77.6c5.9,0,10.8,2.5,14.7,7.6c2.1,3.2,3.2,6.6,3.2,10.2v36c0,5.8-2.5,10.7-7.6,14.6
		c-3.2,2.1-6.6,3.2-10.2,3.2h-77.6c-0.1,0-0.2,0-0.2-0.1V82.4C537.3,82.3,537.4,82.2,537.5,82.2z M554.1,99v38.2h61
		c0.8-0.1,1.2-0.5,1.2-1.2v-35.8c-0.1-0.8-0.5-1.2-1.2-1.2H554.1z"/>
	<path class="st1" d="M222.6,160.1h19.1c15.6,16.2,30.3,31.5,44.2,46v-45.8c0-0.1,0.1-0.1,0.1-0.1h13.2c0.1,0,0.1,0,0.1,0.1V220
		c0,0.1,0,0.1-0.1,0.1h-19.1c-15.6-16.2-30.3-31.5-44.2-46V220c0,0.1,0,0.1-0.1,0.1h-13.2c-0.1,0-0.1,0-0.1-0.1v-59.8
		C222.5,160.2,222.5,160.1,222.6,160.1z"/>
	<path class="st1" d="M307,160.1h19.2l19.2,20c6.2-6.5,12.6-13.2,19.2-20h19.1v0c-11.7,12.2-22.3,23.2-31.6,33V220
		c0,0.1,0,0.1-0.1,0.1h-13.3c-0.1,0-0.1,0-0.1-0.1v-26.9C326.9,180.9,316.3,169.9,307,160.1L307,160.1z"/>
	<path class="st1" d="M391.6,160.1h19.1c15.6,16.2,30.3,31.5,44.2,46v-45.8c0-0.1,0.1-0.1,0.1-0.1h13.2c0.1,0,0.1,0,0.1,0.1V220
		c0,0.1,0,0.1-0.1,0.1h-19.1c-15.6-16.2-30.3-31.5-44.2-46V220c0,0.1,0,0.1-0.1,0.1h-13.2c-0.1,0-0.1,0-0.1-0.1v-59.8
		C391.4,160.2,391.5,160.1,391.6,160.1z"/>
	<path class="st1" d="M539.5,160.1h13.3c0.1,0,0.1,0,0.1,0.1v45c0,4.9-2,9-6.1,12.3c-2.6,1.8-5.3,2.7-8.2,2.7h-48.3
		c-4.2,0-7.8-1.8-11-5.5c-2.1-2.9-3.2-6-3.2-9.4l0.1-0.1h13.2l0.4,0.8c0.2,0.1,0.5,0.2,0.6,0.2h48.1c0.6-0.1,0.9-0.4,0.9-1v-44.9
		C539.4,160.1,539.4,160.1,539.5,160.1z"/>
	<path class="st1" d="M588.8,160.2h20c1,1.9,3.5,7.2,7.6,16l20.8,44l-0.1,0h-15.9c-0.1,0-1.1-2-2.9-5.9c-1.9-4-2.9-6-2.9-6h-33.1
		c-0.7,1.3-2.6,5.3-5.7,11.9l-0.1,0h-15.9l-0.1,0c18-38,27.2-57.4,27.5-58.2C588.4,160.8,588.7,160.2,588.8,160.2z M598.7,173
		l-9.9,21.1h20v0C603,182.1,599.7,175.1,598.7,173L598.7,173z"/>
</g>
</svg>
